<?xml version = "1.0" standalone = "no"?>
<svg xmlns="http://www.w3.org/2000/svg" xmlns:xlink="http://www.w3.org/1999/xlink" font-family="Arial" viewBox="78 1434 64 64" width="64" height="64"><g clip-path="url(#clip-nzTbxZweg7uM9-nBxUBSjkw78W8)"><ellipse cx="30" cy="30" rx="30" ry="30" transform="matrix(1 0 0 1 80 1436)" fill="#bfbfbf" stroke="#000000" stroke-width="2" stroke-linecap="butt" stroke-linejoin="round"/></g><clipPath id="clip-nzTbxZweg7uM9-nBxUBSjkw78W8"><path d="M 82.02691593266871 1490 L 138.02691593266871 1490 L 138.02691593266871 1497 L 82.02691593266871 1497 Z M -21 1597 L 241 1597 L 241 1335 L -21 1335 Z" clip-rule="evenodd"/></clipPath><ellipse cx="28.000000000000007" cy="6" rx="28.000000000000007" ry="6" transform="matrix(1 0 0 1 82 1484)" fill="#000000" stroke="#ffffff" stroke-linecap="butt" stroke-linejoin="round"/><g><path transform="matrix(1 0 0 1 107.0069496407986 1456.371937807858)" d="M 0 2.8727101561694326 C 1.0392735330574538 2.3941709849216295 2.0785470661149077 1.9156318136742811 3 1.115267732186794 C 3.9214529338850923 0.31490365069930704 4.72508526859788 -0.8072853410267271 7 0.8727101561694326 C 9.27491473140212 2.5527056533655923 13.021111859493516 7.034885639485083 13.999999999999986 9.66216725566369 C 14.978888140506456 12.289448871842296 13.19046729342817 13.061832118081611 11.712497193566094 12.872710156169433 C 10.234527093704017 12.683588194257254 9.06700774105829 11.532961024194265 8 9.872710156169433 C 6.9329922589417095 8.2124592881446 5.966496129470855 6.042584722157017 5 3.8727101561694326 Z" fill-rule="evenodd" fill="#000000" stroke="#ffffff" stroke-width="1" stroke-linecap="round" stroke-linejoin="round"/><g><g fill="none"><path d="M 116.65070104401555 1467.4551908645333 C 116.15070104401556 1468.2885241978665 115.65070104401555 1469.1218575311998 115.65070104401555 1469.9551908645333 C 115.65070104401555 1470.7885241978668 116.15070104401555 1471.6218575312 116.65070104401555 1472.4551908645333" stroke="#000000" stroke-width="2" stroke-linecap="round" stroke-linejoin="round"/></g></g><g><g fill="none"><path d="M 119.65070104401555 1465.9722378042252 C 121.26540801251195 1466.5670059159206 122.88011498100835 1467.1617740276165 123.83219784660271 1467.9089328710013 C 124.78428071219707 1468.656091714386 125.07373947488935 1469.5556412894598 125.36319823758164 1470.4551908645333" stroke="#000000" stroke-width="2" stroke-linecap="round" stroke-linejoin="round"/></g></g><g><g fill="none"><path d="M 119.36319823758164 1467.2446479640275 C 120.23299107359578 1468.1657075059052 121.10278390960991 1469.0867670477824 121.65070104401555 1469.9551908645333 C 122.19861817842119 1470.8236146812842 122.42465961121837 1471.6394027729089 122.65070104401555 1472.4551908645333" stroke="#000000" stroke-width="2" stroke-linecap="round" stroke-linejoin="round"/></g></g></g><path transform="matrix(1 0 0 1 94.83706994644922 1440.1809899589048)" d="M 18.169879694349376 50.06365800512276 C 14.526952865081086 48.47829215146385 1.7412618081705062 28.331950688049346 0.1698796943493761 16.06365800512276 C -1.401502419471754 3.795365322196176 8.241424409796522 -0.5948785802431757 16.169879694349376 0.0636580051227611 C 24.09833497890223 0.7221945904886979 30.312318718739633 6.429511663659241 32.169879694349376 11.063658005122761 C 34.02744066995912 15.697804346586281 31.528578881341232 19.25877995634255 28.169879694349376 21.06365800512276 C 24.81118050735752 22.86853605390297 20.592643921991623 22.917316541707805 17.556546361016046 22.06365800512276 C 14.52044880004047 21.209999468537717 12.66679026345507 19.453901907561885 14.48987969434937 27.06365800512276 C 16.31296912524367 34.67341410268364 21.812806523617667 51.649023858781675 18.169879694349376 50.06365800512276 Z" fill-rule="evenodd" fill="#000000" stroke="#ffffff" stroke-width="1" stroke-linecap="round" stroke-linejoin="round"/><g><ellipse cx="3" cy="3" rx="3" ry="3" transform="matrix(1 0 0 1 105.6957063815884 1445.5246049313473)" fill="#ffffff" stroke="#000000" stroke-linecap="butt" stroke-linejoin="round"/><ellipse cx="3" cy="3" rx="3" ry="3" transform="matrix(1 0 0 1 115.65070104401555 1448.5246049313473)" fill="#ffffff" stroke="#000000" stroke-linecap="butt" stroke-linejoin="round"/><g><g fill="none"><path d="M 106.6957063815884 1453.6077556421828 A 8.21634935625058 8.21634935625058 0 0 0 116.6957063815884 1456.9692640404237" stroke="#ffffff" stroke-width="2" stroke-linecap="round" stroke-linejoin="round"/></g></g></g><ellipse cx="27.101602941542758" cy="5.524418158220897" rx="27.101602941542758" ry="5.524418158220897" transform="matrix(1 0 0 1 82.92531299112596 1484.4408748083724)" fill="#000000" stroke="none"/><g><path transform="matrix(1 0 0 1 86 1455.1807728214449)" d="M 5.5813738806251365 7.563875142582674 C 9.114897726855034 6.023197434443773 12.648421573084931 4.482519726304872 14.006949640798595 3.063875142582674 C 15.365477708512259 1.6452305588604759 14.549009997709746 0.3486190995549805 12.351328011193502 0.06387514258267402 C 10.153646024677258 -0.22086881438963246 6.57474976244724 0.50625473097125 4.006949640798595 1.063875142582674 C 1.4391495191499502 1.621495554194098 -0.11755446191735075 2.0096128320558364 0.006949640798595169 5.067648546341388 C 0.1314537435145411 8.12568426062694 1.9371659300137054 13.85363841133676 4.006949640798595 16.063875142582674 C 6.076733351583485 18.274111873828588 8.410588586653986 16.966631185610368 9.132204916496349 16.063875142582674 C 9.853821246338711 15.16111909955498 8.96319867095292 14.663087701717814 8.006949640798595 13.063875142582674 C 7.05070061064427 11.464662583447534 6.02882512572144 8.764268863015104 5.006949640798595 6.063875142582674 Z" fill-rule="evenodd" fill="#000000" stroke="#ffffff" stroke-width="1" stroke-linecap="round" stroke-linejoin="round"/><g><g fill="none"><path d="M 90.15696965539799 1471.1190837707513 C 89.76348312597156 1472.443049448299 89.36999659654514 1473.7670151258467 89.51165992744524 1474.8480898816622 C 89.65332325834534 1475.9291646374777 90.33013644957197 1476.7673484715613 91.0069496407986 1477.6055323056448" stroke="#000000" stroke-width="2" stroke-linecap="round" stroke-linejoin="round"/></g></g><g><g fill="none"><path d="M 92.0069496407986 1471.6055323056448 C 92.04416176071189 1472.6055323056453 92.08137388062515 1473.605532305645 92.58137388062514 1474.6055323056448 C 93.08137388062512 1475.6055323056446 94.04416176071186 1476.6055323056448 95.0069496407986 1477.6055323056448" stroke="#000000" stroke-width="2" stroke-linecap="round" stroke-linejoin="round"/></g></g><g><g fill="none"><path d="M 94.0069496407986 1470.1055323056448 C 95.67361630746527 1470.9272726674467 97.34028297413194 1471.7490130292479 98.0069496407986 1472.6055323056448 C 98.67361630746525 1473.4620515820418 98.34028297413192 1474.3533497730346 98.0069496407986 1475.2446479640275" stroke="#000000" stroke-width="2" stroke-linecap="round" stroke-linejoin="round"/></g></g></g><g><g fill="none"><path d="M 122.72153013217056 1473.1158480745892 L 122.72153013217056 1489.2446479640275" stroke="#000000" stroke-width="1" stroke-linecap="round" stroke-linejoin="round"/></g></g><g><g fill="none"><path d="M 116.72153013217056 1472.6055323056448 L 116.72153013217056 1490.9986995396735" stroke="#000000" stroke-width="1" stroke-linecap="round" stroke-linejoin="round"/></g></g><g><g fill="none"><path d="M 125.36423988648458 1470.7149550527154 L 125.36423988648458 1489.2446479640275" stroke="#000000" stroke-width="1" stroke-linecap="round" stroke-linejoin="round"/></g></g><g><g fill="none"><path d="M 98.0271728766922 1475.4889391553857 L 98.0271728766922 1491.2446479640275" stroke="#000000" stroke-width="1" stroke-linecap="round" stroke-linejoin="round"/></g></g><g><g fill="none"><path d="M 95.0069496407986 1477.6055323056448 L 95.0069496407986 1493.3612411142867" stroke="#000000" stroke-width="1" stroke-linecap="round" stroke-linejoin="round"/></g></g><g><g fill="none"><path d="M 91.5069496407986 1478.2446479640275 L 91.5069496407986 1491.7553520359725" stroke="#000000" stroke-width="1" stroke-linecap="round" stroke-linejoin="round"/></g></g></svg>